<svg width="24" height="24" viewBox="0 0 24 24" fill="none" xmlns="http://www.w3.org/2000/svg">
<path d="M12 0.15332C15.2604 0.15332 15.6672 0.16532 16.9464 0.22532C18.2244 0.28532 19.0944 0.48572 19.86 0.78332C20.652 1.08812 21.3192 1.50092 21.9864 2.16692C22.5966 2.7668 23.0687 3.49243 23.37 4.29332C23.6664 5.05772 23.868 5.92892 23.928 7.20692C23.9844 8.48612 24 8.89292 24 12.1533C24 15.4137 23.988 15.8205 23.928 17.0997C23.868 18.3777 23.6664 19.2477 23.37 20.0133C23.0696 20.8147 22.5973 21.5405 21.9864 22.1397C21.3864 22.7497 20.6608 23.2218 19.86 23.5233C19.0956 23.8197 18.2244 24.0213 16.9464 24.0813C15.6672 24.1377 15.2604 24.1533 12 24.1533C8.7396 24.1533 8.3328 24.1413 7.0536 24.0813C5.7756 24.0213 4.9056 23.8197 4.14 23.5233C3.33879 23.2227 2.61303 22.7505 2.0136 22.1397C1.40329 21.5399 0.931118 20.8143 0.63 20.0133C0.3324 19.2489 0.132 18.3777 0.0719999 17.0997C0.0155999 15.8205 0 15.4137 0 12.1533C0 8.89292 0.0119999 8.48612 0.0719999 7.20692C0.132 5.92772 0.3324 5.05892 0.63 4.29332C0.930284 3.49194 1.40256 2.76611 2.0136 2.16692C2.61321 1.5564 3.33891 1.0842 4.14 0.78332C4.9056 0.48572 5.7744 0.28532 7.0536 0.22532C8.3328 0.16892 8.7396 0.15332 12 0.15332ZM12 6.15332C10.4087 6.15332 8.88258 6.78546 7.75736 7.91068C6.63214 9.0359 6 10.562 6 12.1533C6 13.7446 6.63214 15.2707 7.75736 16.396C8.88258 17.5212 10.4087 18.1533 12 18.1533C13.5913 18.1533 15.1174 17.5212 16.2426 16.396C17.3679 15.2707 18 13.7446 18 12.1533C18 10.562 17.3679 9.0359 16.2426 7.91068C15.1174 6.78546 13.5913 6.15332 12 6.15332ZM19.8 5.85332C19.8 5.4555 19.642 5.07397 19.3607 4.79266C19.0794 4.51136 18.6978 4.35332 18.3 4.35332C17.9022 4.35332 17.5206 4.51136 17.2393 4.79266C16.958 5.07397 16.8 5.4555 16.8 5.85332C16.8 6.25115 16.958 6.63268 17.2393 6.91398C17.5206 7.19529 17.9022 7.35332 18.3 7.35332C18.6978 7.35332 19.0794 7.19529 19.3607 6.91398C19.642 6.63268 19.8 6.25115 19.8 5.85332ZM12 8.55332C12.9548 8.55332 13.8705 8.9326 14.5456 9.60774C15.2207 10.2829 15.6 11.1985 15.6 12.1533C15.6 13.1081 15.2207 14.0238 14.5456 14.6989C13.8705 15.374 12.9548 15.7533 12 15.7533C11.0452 15.7533 10.1295 15.374 9.45442 14.6989C8.77929 14.0238 8.4 13.1081 8.4 12.1533C8.4 11.1985 8.77929 10.2829 9.45442 9.60774C10.1295 8.9326 11.0452 8.55332 12 8.55332Z" fill="white"/>
</svg>
