<svg width="24" height="20" viewBox="0 0 24 20" fill="none" xmlns="http://www.w3.org/2000/svg">
<path d="M23.9988 2.46978C23.1 2.86738 22.1467 3.1285 21.1707 3.24451C22.1995 2.62924 22.9694 1.66093 23.3371 0.52002C22.3717 1.09459 21.3132 1.49726 20.21 1.71507C19.4689 0.922192 18.4867 0.39635 17.416 0.219295C16.3452 0.0422407 15.246 0.223895 14.2892 0.736016C13.3323 1.24814 12.5715 2.06203 12.1249 3.05117C11.6784 4.04031 11.5711 5.14927 11.8199 6.20565C9.86198 6.10752 7.94662 5.59873 6.19814 4.71232C4.44966 3.82591 2.90714 2.58169 1.67072 1.06044C1.23307 1.81215 1.00309 2.66667 1.00432 3.5365C1.00432 5.24372 1.87323 6.75196 3.19427 7.63501C2.41249 7.6104 1.64792 7.39927 0.964286 7.01923V7.08046C0.964522 8.21747 1.35797 9.31941 2.07792 10.1994C2.79787 11.0795 3.80002 11.6834 4.91444 11.9089C4.18871 12.1056 3.42776 12.1346 2.68917 11.9937C3.00338 12.9724 3.61579 13.8283 4.44065 14.4417C5.26551 15.055 6.26153 15.395 7.28925 15.414C6.26783 16.2162 5.09832 16.8092 3.84758 17.1591C2.59684 17.5091 1.2894 17.609 0 17.4533C2.25082 18.9008 4.87099 19.6693 7.5471 19.6668C16.6048 19.6668 21.5581 12.1633 21.5581 5.65581C21.5581 5.44388 21.5522 5.22959 21.5428 5.02002C22.5069 4.3232 23.339 3.45999 24 2.47096L23.9988 2.46978Z" fill="white"/>
</svg>
