<svg width="24" height="20" viewBox="0 0 24 20" fill="none" xmlns="http://www.w3.org/2000/svg">
<path fill-rule="evenodd" clip-rule="evenodd" d="M24 9.9999C24 9.9999 24 5.5359 23.4516 3.3975C23.1504 2.2191 22.26 1.2903 21.126 0.971102C19.0752 0.399902 12 0.399902 12 0.399902C12 0.399902 4.9284 0.399902 2.874 0.971102C1.7448 1.2855 0.8532 2.2155 0.5484 3.3975C0 5.5359 0 9.9999 0 9.9999C0 9.9999 0 14.4639 0.5484 16.6023C0.8496 17.7807 1.74 18.7095 2.874 19.0287C4.9284 19.5999 12 19.5999 12 19.5999C12 19.5999 19.0752 19.5999 21.126 19.0287C22.2552 18.7143 23.1468 17.7843 23.4516 16.6023C24 14.4639 24 9.9999 24 9.9999ZM16.8 9.9999L9.6 14.1999V5.7999L16.8 9.9999Z" fill="white"/>
</svg>
